;<svg xmlns="http://www.w3.org/2000/svg" viewBox="0 0 17.88 20.52">
  <defs>
    <style></style>
  </defs>
  <g fill="#bfbfbf">
    <path d="M17.88 3.88a1.3 1.3 0 00-1.3-1.29h-3.39a3.42 3.42 0 00-.94-1.82C11.51-.14 8.41 0 8.06 0 6.27.12 5.8.51 5.59.84l-.25.35a2.85 2.85 0 00-.65 1.4h-3.4A1.29 1.29 0 000 3.88v.59h1.41v13.45A2.6 2.6 0 004 20.52h9.87a2.6 2.6 0 002.6-2.6V4.47h1.41zM15 17.92a1.1 1.1 0 01-1.1 1.1H4a1.1 1.1 0 01-1.09-1.1V4.56H15zM6.57 2.06l.23-.34a9.84 9.84 0 014.32.05 3.84 3.84 0 01.55.82H6.22a5.37 5.37 0 01.35-.53z" />
    <path d="M6.01 7.09h1.31v9.39H6.01zM10.51 7.09h1.31v9.39h-1.31z" />
  </g>
</svg>
