<svg xmlns="http://www.w3.org/2000/svg" viewBox="0 0 17.88 20.52"><defs><style>.cls-1{fill:#bfbfbf;}</style></defs><title>delete-icon</title><g id="Layer_2" data-name="Layer 2"><g id="Layer_1-2" data-name="Layer 1"><path class="cls-1" d="M17.88,3.88a1.3,1.3,0,0,0-1.3-1.29H13.19A3.42,3.42,0,0,0,12.25.77C11.51-.14,8.41,0,8.06,0,6.27.12,5.8.51,5.59.84l-.25.35a2.85,2.85,0,0,0-.65,1.4H1.29A1.29,1.29,0,0,0,0,3.88v.59H1.41V17.92A2.6,2.6,0,0,0,4,20.52h9.87a2.6,2.6,0,0,0,2.6-2.6V4.47h1.41ZM15,17.92a1.1,1.1,0,0,1-1.1,1.1H4a1.1,1.1,0,0,1-1.09-1.1V4.56H15ZM6.57,2.06l.23-.34a9.84,9.84,0,0,1,4.32.05,3.84,3.84,0,0,1,.55.82H6.22A5.37,5.37,0,0,1,6.57,2.06Z"/><rect class="cls-1" x="6.01" y="7.09" width="1.31" height="9.39"/><rect class="cls-1" x="10.51" y="7.09" width="1.31" height="9.39"/></g></g></svg>